<?xml version="1.0" standalone="no"?>
<!DOCTYPE svg PUBLIC "-//W3C//DTD SVG 20010904//EN"
 "http://www.w3.org/TR/2001/REC-SVG-20010904/DTD/svg10.dtd">
<svg version="1.0" xmlns="http://www.w3.org/2000/svg"
 width="664.000000pt" height="664.000000pt" viewBox="0 0 664.000000 664.000000"
 preserveAspectRatio="xMidYMid meet">
<metadata>
Created by potrace 1.11, written by Peter Selinger 2001-2013
</metadata>
<g transform="translate(0.000000,664.000000) scale(0.100000,-0.100000)"
fill="#000000" stroke="none">
<path d="M699 6213 c-84 -71 -156 -330 -175 -633 l-7 -111 -71 5 c-39 3 -141
8 -227 12 l-156 6 -31 -27 c-42 -36 -44 -84 -4 -124 26 -27 31 -28 172 -34 80
-4 177 -7 217 -7 98 0 103 -3 103 -59 0 -83 30 -304 55 -411 30 -123 82 -238
126 -274 29 -25 36 -26 153 -26 111 0 126 2 150 21 87 69 148 269 177 588 l13
130 95 -6 c91 -6 97 -8 130 -40 19 -18 37 -33 41 -33 9 0 41 -74 65 -150 40
-127 182 -408 255 -505 20 -27 116 -131 211 -231 174 -180 174 -180 264 -343
102 -185 138 -225 293 -326 l93 -60 -8 -40 c-4 -22 -8 -103 -8 -180 1 -156 15
-238 73 -425 54 -177 45 -271 -39 -382 -21 -29 -41 -66 -45 -83 -3 -19 -17
-38 -38 -52 -83 -54 -217 -176 -237 -214 -22 -43 -28 -128 -14 -207 4 -28 2
-47 -8 -64 -34 -53 -50 -299 -31 -479 8 -79 19 -218 24 -309 5 -91 12 -201 16
-245 6 -77 5 -80 -17 -90 -17 -7 -27 -25 -37 -65 -9 -38 -28 -73 -63 -115 -40
-48 -49 -67 -49 -98 0 -45 22 -92 50 -107 10 -6 89 -13 173 -17 l155 -6 17 27
c13 19 16 38 12 68 -3 23 1 166 8 318 16 313 20 332 101 490 37 71 60 131 71
185 9 44 18 82 20 84 2 3 22 -13 46 -36 113 -108 166 -109 211 -2 l15 36 128
6 c254 13 297 7 503 -73 179 -70 188 -73 227 -65 31 6 67 36 206 173 l169 167
-68 -113 -68 -114 -8 -126 c-8 -117 -13 -135 -52 -232 -75 -179 -114 -264
-139 -295 -14 -17 -28 -46 -32 -65 -4 -19 -20 -69 -35 -111 l-28 -76 19 -32
c24 -40 43 -47 154 -54 50 -4 125 -13 167 -22 107 -20 383 -40 442 -31 53 8
106 49 106 82 0 27 -63 79 -127 104 -32 13 -74 35 -93 49 -69 50 -210 186
-210 203 0 29 90 194 186 343 50 77 135 207 188 290 54 82 120 196 148 251 42
85 51 113 56 173 7 107 -10 154 -82 227 -47 46 -79 68 -136 92 -163 67 -435
96 -678 73 -68 -7 -130 -15 -137 -17 -8 -3 -16 4 -20 16 -4 13 -25 30 -52 42
l-45 20 20 21 c60 66 128 215 207 452 29 88 78 214 108 280 62 137 84 205 96
306 12 91 25 105 171 177 99 48 124 66 180 125 36 38 94 100 131 137 36 37 80
95 97 129 22 40 55 80 100 118 159 139 182 165 227 258 24 49 62 143 84 209
22 65 58 148 80 185 29 50 44 91 58 159 22 113 43 125 43 25 0 -227 97 -506
203 -587 63 -49 275 -63 354 -25 117 57 217 253 265 524 12 66 22 121 23 122
1 2 88 -1 195 -6 216 -11 237 -7 260 49 10 24 10 36 0 61 -23 54 -40 59 -249
66 -126 4 -194 10 -196 17 -1 6 -8 70 -13 141 -13 147 -45 289 -90 387 -31 69
-98 150 -142 173 -14 7 -80 16 -151 20 -108 6 -131 5 -162 -10 -123 -58 -235
-280 -277 -550 -6 -38 -13 -85 -16 -102 -5 -32 -7 -33 -51 -33 -29 0 -50 5
-57 15 -6 9 -33 16 -64 19 -29 2 -56 7 -59 10 -4 3 -19 6 -33 6 -15 0 -33 7
-40 15 -21 26 -59 18 -78 -15 -13 -23 -24 -30 -47 -30 -16 0 -714 27 -1550 60
l-1520 61 -18 24 c-27 36 -87 50 -133 30 -21 -9 -41 -12 -48 -7 -17 13 -89 12
-105 -1 -11 -9 -15 -9 -18 1 -7 19 -41 14 -63 -8 -19 -19 -31 -20 -138 -18
l-117 3 -7 110 c-21 324 -92 587 -179 659 -29 25 -36 26 -154 26 -120 0 -124
-1 -156 -27z m2643 -1033 c827 -33 1526 -61 1553 -63 28 -3 78 -15 112 -28
l61 -24 -66 -110 c-50 -84 -86 -128 -147 -185 -144 -135 -209 -206 -285 -313
-41 -58 -85 -110 -96 -115 -37 -18 -150 -130 -210 -208 -49 -64 -61 -74 -88
-74 -77 0 -229 -60 -333 -132 -24 -16 -43 -28 -43 -26 0 2 7 26 16 53 17 54
36 280 38 440 1 93 -1 104 -29 154 -69 124 -226 178 -390 136 -114 -30 -199
-108 -225 -206 -9 -34 -21 -212 -20 -298 0 -20 15 -61 36 -98 30 -54 35 -71
32 -116 -3 -49 -5 -53 -41 -70 l-37 -19 -60 45 c-90 68 -231 127 -303 127 -11
0 -92 72 -190 168 -135 132 -186 175 -236 200 -35 18 -70 32 -77 32 -8 0 -23
19 -35 43 -50 99 -141 218 -321 419 -119 132 -233 292 -224 313 4 11 21 15 56
15 27 0 726 -27 1552 -60z"/>
</g>
</svg>
