<svg width="103" height="169" viewBox="0 0 103 169" fill="none" xmlns="http://www.w3.org/2000/svg">
<path d="M99.3643 155.256C95.0515 155.023 91.6711 155.43 91.0883 154.382L84.4442 153.683C84.4442 153.683 84.5025 146.054 81.7049 142.734C81.7049 142.734 90.3307 145.005 92.8368 141.336C92.8368 141.336 95.7509 139.123 98.0822 139.007C98.0822 139.007 97.6159 137.26 95.7509 134.057C95.7509 134.057 93.711 127.184 92.5454 128.524L92.9533 125.321L92.5454 125.204C92.5454 125.204 94.0024 104.879 88.4656 100.394C88.4656 100.394 86.3092 97.6571 86.4841 93.0562C86.6589 88.4553 87.3 66.7903 81.2387 59.8016C81.2387 59.8016 78.9657 56.9479 77.6835 55.7249C76.4013 54.5019 74.7111 51.357 74.7111 51.357C77.8583 51.9393 82.0546 49.1439 82.0546 49.1439C83.7448 48.7362 83.2785 46.6396 83.2785 46.6396C83.2785 42.9705 81.3552 37.4378 81.3552 37.4378C78.7908 27.3624 76.1099 25.3241 73.8952 23.6351C71.6805 21.888 70.8645 22.7033 69.8737 22.4121C68.8829 22.1209 65.4443 21.2473 64.6283 20.1408C64.1621 19.4419 63.9872 18.5101 64.2204 17.6947C65.386 16.6464 66.0854 15.1322 66.0271 13.5598C67.5424 14.5498 67.0179 9.89071 67.0179 9.89071C66.9596 5.63925 65.6774 3.71736 65.6774 3.71736C59.2081 -4.49436 53.7879 3.60088 53.7879 3.60088C52.3891 5.46453 52.564 10.4149 52.564 10.4149C51.9229 9.77423 51.5149 11.2884 52.3891 13.5015C53.2634 15.7146 54.1959 15.1322 54.1959 15.1322L54.3707 15.7729C51.8063 18.8013 53.2634 20.3155 53.2634 20.3155C53.4965 17.8112 55.1867 17.2871 55.1867 17.2871L55.4198 23.2275C54.3124 23.4022 52.9137 24.8582 52.9137 24.8582C52.2726 24.9746 48.8922 26.6636 48.8922 26.6636C46.6775 27.4789 45.3953 32.0798 45.8033 34.4676C46.2113 36.8554 46.0364 39.8838 45.8033 41.631C45.5702 43.4364 44.6959 46.6978 44.6959 46.6978C43.88 46.5231 43.2389 48.9109 42.4812 50.0757C41.7236 51.2405 38.7512 54.7348 38.7512 54.7348C37.9935 53.9777 36.8862 54.6183 36.8862 54.6183C35.7788 54.0942 35.604 55.0843 35.604 55.0843C35.1377 54.9678 34.6132 55.0843 34.2635 55.3755C32.7481 55.0843 33.2727 59.0445 33.2727 59.0445C31.4659 60.3258 31.1162 62.5389 30.8831 64.5772C30.65 66.6156 30.242 66.7321 30.242 66.7321C28.5518 66.3244 28.4936 67.7804 28.4936 67.7804L30.9414 70.2847L30.4169 98.2977C23.5979 100.569 17.7114 106.801 14.2728 115.187C12.1746 114.838 7.33723 115.362 4.71454 125.554L0.576523 125.67L0.459961 127.417L4.65626 127.475C4.65626 127.475 4.01516 136.386 11.5918 139.298C13.3403 149.898 18.9936 158.4 26.5703 161.662C24.7052 161.72 19.5764 161.953 19.3433 163.409L18.3525 163.467C18.3525 163.467 17.012 160.846 15.2053 161.487C13.3985 162.186 13.1654 163.001 13.1654 164.632C13.1654 166.263 15.2636 168.359 18.3525 165.564L58.2756 168.592C58.2756 168.592 63.4044 168.534 60.432 164.923L51.4566 164.166L54.6038 163.293C54.6038 163.293 61.1897 163.933 64.2786 161.138L78.7908 157.76L96.3337 159.158L96.4503 159.798L95.4012 159.682L95.2846 161.662C95.2846 161.662 98.8981 161.953 99.4226 161.487L99.2478 159.973L98.6067 159.915V159.332C98.6067 159.332 102.745 159.915 102.512 156.944C102.628 156.944 103.677 155.488 99.3643 155.256ZM34.788 95.6187L33.1561 97.1911L33.3892 73.0801L36.7696 76.0503L37.1776 94.0462C37.1776 94.0462 35.6039 93.4056 34.788 95.6187ZM33.7972 64.6355C34.2052 60.0346 36.3616 61.2576 37.6438 61.4906C38.926 61.7235 40.6745 59.9181 40.6745 59.9181C40.1499 60.5587 40.6162 65.6255 40.6162 65.6255L39.6254 64.519L33.7972 64.6355ZM43.8217 163.351L39.9751 163.409C40.6745 163.293 43.8217 161.138 43.8217 161.138V163.351ZM44.2297 96.3758V95.1528C43.6469 93.8133 42.1315 93.3474 42.1315 93.3474L41.8984 78.2052L44.8708 96.3176H44.2297V96.3758ZM50.3493 160.788L48.7174 161.079L48.6591 156.944L50.9321 154.207L50.3493 160.788ZM54.8953 67.9551C54.4873 68.9452 50.7572 77.5646 50.1744 80.6512C49.3002 84.6697 49.0671 88.7465 49.5333 92.8232C49.883 96.0264 50.0579 99.2295 49.9996 102.491V103.481L47.8432 101.268L45.2787 78.0305L48.4842 77.7393L49.8247 75.0603L46.9689 72.1483C46.9689 72.1483 47.9597 70.9253 45.8616 71.1582L43.88 69.2946C43.88 69.2946 41.4321 60.7917 44.7542 58.4621C48.0763 56.1326 52.972 54.036 52.972 54.036L54.7787 57.5885C55.0118 58.928 55.4198 60.384 55.5946 61.84C55.7112 63.296 55.3615 66.965 54.8953 67.9551ZM85.3184 133.707L82.4626 136.968C83.0454 136.27 84.0945 131.436 84.0945 131.436L85.6681 131.494C85.027 131.727 84.5025 132.193 84.2693 132.775C83.8031 133.882 85.3184 133.707 85.3184 133.707ZM73.7203 42.3881L74.5945 43.4947L73.4289 43.9023L73.7203 42.3881ZM74.7111 95.2692L71.5056 94.9781L71.4473 92.8814H73.7786C73.7786 92.8814 74.1866 94.6869 74.7111 95.2692ZM58.159 139.24L58.975 136.619L63.5793 141.395L58.159 139.24ZM65.6774 131.669C61.3645 130.853 60.8983 133.765 60.8983 133.765L58.9167 132.309L59.0333 129.689L65.8523 130.096L65.6774 131.669ZM60.3155 127.941C60.3155 127.941 61.3646 125.029 58.6253 124.855C58.3922 121.943 57.8676 119.031 56.9934 116.235C58.7419 111.518 59.2081 106.451 58.3339 101.501C58.3339 101.501 60.7817 96.3176 61.656 92.6485C62.5302 88.9794 66.8431 84.9027 67.5424 81.5831C68.3001 78.2634 69.6406 76.691 69.6406 76.691C69.6406 76.691 70.5148 82.1655 71.5639 84.2038C72.613 86.2422 72.0884 86.5334 72.0884 86.5334C72.0884 86.5334 65.2112 88.3388 71.6804 90.9013C71.6804 90.9013 69.116 90.6684 69.2326 93.5803C69.3492 96.5505 69.3492 99.0548 69.3492 99.0548L71.3308 99.113C71.3308 99.113 71.2725 99.6954 72.0301 100.103L70.5148 110.178C70.0486 110.237 69.5823 109.946 69.4075 109.48C69.4075 109.48 66.9596 108.373 65.9105 110.295C64.8615 112.217 66.7848 113.44 69.2909 113.673L68.5332 119.73C68.5332 119.73 65.2112 124.68 65.9688 128.291L60.3155 127.941ZM79.9565 153.508L67.3676 153.217C67.7756 152.809 68.1253 149.49 68.1253 149.49C68.7664 148.791 69.2326 148.034 69.4657 147.16C70.1068 145.471 71.3308 147.16 71.3308 147.16C71.797 147.626 72.4964 147.859 73.1958 147.859C74.478 146.112 75.2939 147.044 75.2939 147.044C75.5271 145.937 78.2663 145.18 78.2663 145.18C80.3062 148.733 80.0148 153.508 79.9565 153.508ZM73.1958 115.711L73.4289 114.896L74.07 114.721L74.3614 111.693L73.662 111.285L75.4688 98.9383L77.159 99.2295L77.1007 100.569C77.1007 100.569 76.1099 99.8701 76.0516 101.21C76.0516 101.21 75.5271 103.073 75.8185 103.714C75.8185 103.714 77.2755 106.276 79.8982 103.306C79.8982 103.306 81.0056 105.927 82.1712 109.48C82.1712 109.48 82.9871 112.508 84.1528 115.828C85.3184 119.147 87.1252 124.971 87.0086 125.903C87.0086 125.903 85.9012 125.495 86.8337 126.544L86.6006 128.291L83.9779 128.174C83.9196 128.174 83.6282 114.255 73.1958 115.711Z" fill="#495963"/>
</svg>
