<?xml version="1.0" encoding="utf-8"?>
<!-- Generator: Adobe Illustrator 25.3.0, SVG Export Plug-In . SVG Version: 6.00 Build 0)  -->
<svg version="1.1" id="Layer_1" xmlns="http://www.w3.org/2000/svg" xmlns:xlink="http://www.w3.org/1999/xlink" x="0px" y="0px"
	 viewBox="0 0 332.1 291.9" style="enable-background:new 0 0 332.1 291.9;" xml:space="preserve">
<style type="text/css">
	.st0{fill:#C7D3D8;}
	.st1{fill:#495963;}
</style>
<g id="Layer_2_1_">
	<g id="Layer_2-2">
		<path id="Circle_3" class="st0" d="M56.6,159.8c0.3,1.6,0.3,2.2-0.3,1.4C56.2,160.7,56.2,160.3,56.6,159.8z M106.4,40.8
			c2.4-1.5,4.9-2.8,7.6-4.2c-0.4,0.1-1.5,0.5-2.8,1.2c-0.6,0.3-1.5,0.6-2.2,1.1s-1.6,1-2.4,1.4c-3.2,1.9-6.4,4-7.4,4.6
			C101.7,43.6,104,42.3,106.4,40.8z M94.4,48.7c0.5-0.4,1.1-0.9,2.4-2c-1.5,1.1-2.1,1.5-2.8,1.9C93.5,49.2,93.9,49.1,94.4,48.7z
			 M60.9,218.9c-0.6-1-0.1,0.9,3.5,5.4c3.4,4.6,4.1,4.7,3.2,3.5C64.2,223.1,61.5,219.9,60.9,218.9z M78.7,61.7
			c-0.5,0.5-1.2,1.4-1.9,2.1c-0.1,0.4,0.2,0.3,0.4,0c1.5-1.5,3-3.1,4.6-4.4c0.3-0.5,0.2-0.7,0-0.6C80.9,59.5,79.9,60.5,78.7,61.7z
			 M52.3,104.1c0-0.2,0.1-0.4-0.2-0.2C51.9,105.1,52.1,104.7,52.3,104.1z M146.9,27.3c1.4-0.2,1.2-0.2,1.9-0.4
			C147.3,27.1,147.1,27.2,146.9,27.3z M151.7,38.6c0.6,0,1.4-0.1,2-0.3C152.4,38.1,151.7,38.2,151.7,38.6z M146.9,28.2
			c0.6-0.1,1-0.3,0.7-0.3c-0.3-0.1-0.6-0.2-1-0.3C144.4,28,145.6,28.4,146.9,28.2z M291.9,106.9c0.3,1.1,0.9,2.5,1.3,3.6
			c0.4,1.3,0.7,2.5,1.2,3.1c-0.2-1.4-0.3-2.8-1.1-4.2C292.7,108.7,291.8,105.8,291.9,106.9z M88.9,249.3c-0.2,0,0.1,0.3,0.4,0.5
			C89.5,249.8,89.3,249.5,88.9,249.3z M116.6,36.1c-1.2,0.6-5.8,3.2-5.8,3.7s3.1-0.2,6.1-1.4c1.5-0.5,3.1-1.2,4.3-1.9
			c1.3-0.6,2.1-1.2,2.4-1.7c0.1-0.3,1.9-1.9,0.4-1.6c-1.4,0.3-2.6,0.6-3.8,1.2C119,34.9,117.8,35.5,116.6,36.1z M54.7,87
			c0.2-0.3,0.5-0.6,1-1.1C56.9,82.6,55.3,83.4,54.7,87z M177.2,17c1.1,0,2.2-0.1,3.5,0C178.9,16.5,177.8,16.7,177.2,17z M65.8,222.8
			c-0.2-0.3-0.4-0.7-0.6-1.1C64.8,221.8,65,222.1,65.8,222.8z M208.7,24.7c-0.3-0.2-0.7-0.3-1.1-0.5
			C207.6,24.3,207.9,24.6,208.7,24.7z M161.5,279.6c0.2-0.2,0-0.4-1.2-0.3C160.1,279.5,160.3,279.6,161.5,279.6z M176.6,17.1
			c-9.9-0.5-14.9-0.3-21.8,1.4c3.1,0,8.1-0.3,12.5-0.9C171.8,17.5,175.6,17.4,176.6,17.1z M174.1,22.6c-0.2-0.2-0.6-0.2-1.5,0
			C172.7,22.7,173.1,22.9,174.1,22.6z M292.5,100.2c0.7,1.8,1.5,3.6,2,5.4s1.1,3.6,1.5,5.4c0.9,3.5,1.6,6.6,1.7,9.2
			c0.2,4.5,2.5,8.3,1.9,14.2c-0.1,1.3,0.2,4.5,0.4,7.6c0,3.1-0.1,6-0.2,6.6c0,0.1,0,1.1-0.1,2.5s0,3.3-0.2,5.2
			c-0.4,3.8-0.9,7.7-1,8.3c-0.2,2.5-0.7,4.9-1.1,7.2c-0.3,2.2-0.6,4.4-0.7,6c-0.3,3.3-0.6,4.9,0.1,3c3.7-12.3,5.6-26,5.1-39.9
			c-0.4-13.9-3.5-27.8-8.2-40.8c0,0-0.6-1.5-1.5-3.7c-0.4-1.2-1.1-2.5-1.6-3.8c-0.7-1.4-1.5-2.8-2.2-4.3c-1.5-2.9-3-5.8-4.3-7.9
			c-1.4-2-2.2-3.4-2.2-3.4c-1.6-2.5-3.4-4.7-5.4-6.8c2.1,3.7,4.6,7.3,6.8,11C285.7,85.9,289.8,92.7,292.5,100.2z M61.2,74.7
			c1-0.7,1.6-1.7,2.1-2.9C64.5,69.3,61.1,72.8,61.2,74.7z M112.7,27c2.2-0.7,2.8-1.3,5.1-2.1c5.1-2.1,5.3-2.7,3.4-2.4
			c-1,0.2-2.5,0.6-4.1,1.2s-3.2,1.5-4.7,2.5C111.8,26.7,111.3,27.6,112.7,27z M130.4,29.3c-1.1,0.1-1.5,0.3-1.1,0.6
			C129.9,29.8,130.2,29.6,130.4,29.3z M59.6,71.6c-0.5,0.5-1.1,1.2-1.4,1.9C58.7,73.5,59.1,72.9,59.6,71.6z M295.4,188.9
			c-0.3,0.9-0.6,1.9-1.2,3.3c-0.6,1.3-1.5,2.9-2.7,4.6c-0.3,2.6-0.7,5.2-1.3,7.9c1-1.1,1.6-2,2.4-2.9c1.6-1.8,2.1-3.5,2.6-5.2
			c0.4-1.8,1-3.5,2.2-5.8c1.1-1.8,1.3-4.8,1-4.8C296.6,186.3,296,187.2,295.4,188.9z M293.2,208.5c-2.5,2.5-2.8,5.6,0.2,1.3
			c0.2-0.6,0.5-1.3,0.5-1.5C293.9,207.9,293.5,208.1,293.2,208.5z M294.6,202.6c0.7-1.3,1-3,0.6-3.1
			C294.9,199.3,290.1,210.3,294.6,202.6z M292.9,193.2c0-0.2,0-0.7-0.1-0.7C292.3,192.4,290.8,196,292.9,193.2z M291,197
			c-0.2,0.1-0.5,0.3-0.7,0.6c-1.6,2.4-2.7,5-4.1,8.2c2.5-2.8,4.1-5.7,5.3-8.9C291.3,197,291.1,196.9,291,197z M286.6,202.3
			c-0.5,0.5-1.1,0.7-1.4,0.7c-0.4,1.4-1,2.9-1.5,4.3c-0.7,2.5-1.8,4.5-2.7,6.5c-0.9,2-1.6,3.8-2.4,5.7c-0.6,1.8-1.6,3.4-2.4,5
			c-0.9,1.6-1.6,3.2-2.6,4.7c-1.7,3.2-4,6.1-6.8,9.3c-2.8,3.3-6.6,6.5-11.5,10c-1.7,1.4-3.5,2.4-5.1,3.3c-1.6,1-3,1.8-4.3,2.7
			c-1.3,0.7-2.5,1.5-3.5,2.1c-1.1,0.5-2,1.1-3,1.5c-0.6,0.3-1.2,0.6-1.7,0.9c0.2,0.2,0,0.6-0.4,1.5c-0.7,1.2-1.2,2.6-3.2,3.6
			c-1,0.5-2,1-3.1,1.5c-1.4,0.6-2,1.6-3.5,2c-2.6,0.9-2,1.8-4.7,2.8c-1.4,0.4-2.7,1-4.1,1.5c-2.6,1.7-5.9,1.9-8.7,3.2
			c-2.5,0.2-4.9,1-7.5,1.6c-1.4,0.4-2.8,0.6-4.2,0.9c-1.4,0.2-2.8,0.2-4.2,0.4c0,0-4.5,0.6-9.4,1.5c-4.9,0.4-10.4,0.6-12.1,0.7
			c-2.5,0.1-6.2-0.3-5.2-1c0.5-0.4,1.6-0.7,3.1-0.7c2.7-0.1,6-0.1,4.6-0.7c-0.2,0-0.7-0.1-1.5-0.1c-1.4,0-2.8,0.1-4.2,0.1
			c-1.5,0-3-0.1-4.4-0.2c-2.9-0.2-5.7-0.3-8.2-0.5c-0.1,0-0.2,0-0.2,0c-2.2-0.1-4.6-0.1-6.9,0.2c-4.7,0.9-7.2-0.6-12.7-0.7
			c-1.9,0-3.5-0.1-5-0.2c-1.4-0.2-2.6-0.4-3.6-0.6c-2.1-0.4-3.8-1-5.8-1.6c-1.4-0.4-2.8-0.9-4-1.4s-2.4-1.1-3.3-1.6
			c-2-1.1-3.8-2.1-5.4-3.1c-1.6-1.1-3.1-2.1-4.5-3.4s-2.7-2.5-4.2-3.8c-0.3-0.3-0.9-0.5-1.3-0.6c-1.1-0.2-2.2-0.6-3.5-1.6
			c-3.1-2.7-5.7-4.4-6.2-6.6c-0.2-1.2-0.7-2.5-2.2-3.7c-2.9-2.9-4.5-5-7.1-5.9c-0.2,0-0.2,0.1-0.1,0.2c1.8,1.6,3.8,3.1,4.6,4
			c0.6,0.7-0.2,0.3-1.8-1c2,2,4.2,4.1,4.7,5.2c0.4,1.1-0.9,0.6-1.9-0.1c-0.6-0.4-6.3-6.2-8-8.1c-1.3-1.5-1.8-2.4-3.1-3.3
			c-2.9-2-4.2-6-6.5-9.5c-1.2-2.1-0.4-2.1-0.1-2.7c-0.2-0.2-0.3-0.4-0.4-0.6c-2.1-2.6-1.4-2.4-3.4-5c-2.4-2.9-1.9-3.7-4.3-6.5
			c-0.7-0.9-1.2-2.7-1.4-3.5c-0.5-1.7-1.4-1.9-2.4-3.2c1.6,4,2.1,8.7-0.7,4.6c-1.3-2.1-2.2-3.8-3-5.1c-0.6-1.4-1.1-2.4-1.4-3
			c-0.6-1.4-0.6-1.6-0.6-1.6s0.2,0.1,0-0.5s-0.6-2-1.9-5c-0.9-2.1-1.5-3.3-2.2-4.5c-0.7-1.3-1.5-2.7-2.5-5.6c0,0-0.3-1.2-0.7-3
			s-0.7-4.3-1.3-6.7c-0.4-2.5-0.7-4.8-1.1-6.6c-0.1-1.8-0.2-3.1-0.2-3.1c-0.4-2.5-0.3-4.8-0.7-7.2c-0.4-2-0.4-5.1-0.5-7.9
			c-0.1-2.9-0.3-5.4-0.9-6.8c-1-3.4,0-8.7,0.4-14.1c0.4-4.1,1.4-5.9,1.8-8.4c0.2-1.7,0.5-3.4,1-5.1c0.4-1.7,0.7-3.4,1.2-5.1
			c0.3-1.2,0.1-1.9-0.2-2.2c-1.3-1.2,1.2-7.9,2.6-11.4c0.3-1,0.6-1.9,1.1-2.9l1.2-2.8c0.7-1.8,1.5-3.7,2-5.7c0.4-1.5,1.3-3,2.4-4.1
			c1-1,0.9,0.5,0.2,1.7C51.4,88.4,50,92,49,95.1c-1.2,3-1.6,5.6-1.7,5.8c-1.2,3.2-2.1,6.6-2.8,10.4c-0.5,3.7-1.2,7.5-1.8,11.3
			c-0.1,1.1-0.5,5.2-1,9.5c-0.3,3.6-0.2,7.4-0.2,9c0.2-1.3,0.4-2.5,0.7-3.1c0.2,3.5-0.5,5.3-0.7,9.2c0,0.7-0.1,1.1-0.3,0.7
			c-0.1-0.4-0.1-2,0-4c-0.2,1.8-0.4,4.3-0.2,6.2c0.2,1.5,0.2,7.8,1.5,13.9c0.7,6.2,2.6,12.3,2.8,13.7c0.4,2.4,0.7,4.5,1.5,6.4
			c0.1,0.2,0.1,0.4,0.2,0.6c-0.6-2.9-1.1-6-1.3-8c-0.1-0.9-0.2-1.7-0.2-2.7c0-0.4,0-1-0.1-1.4c-0.5-2-1.1-4.2-1.6-6.2
			c-0.2-0.7-0.3-1.6-0.1-2.1c0.3-0.9,0.1-2.7-0.1-4.8c0,0.1,0,0.3-0.1,0.4c-0.4,0.7-0.7-3.7-0.4-7.2c-0.1-1.5-0.2-2.8-0.2-3.6
			c-0.1-1.1-0.1-2.2-0.2-3.1c-0.4-2.6,0.1-5.1,0.2-7.6c0.1-1.4,0.9-1.4,1-2.8c0.1-2.5,1.5-10.8,1.6-13.3c0.3-2-0.5-2.5-0.1-5.2
			c0.6-4.2,1-6.4,1.3-7.7c0.3-1.2,0.4-1.4,0.4-1.5c0.1-0.1,0.1,0.4,1.8-5.3c1-3.2,0.6-3.6,2.2-4.8c1-0.7,1.4-0.3,0.7,1.7
			c-1.7,5.6-3.1,10.9-4.2,16.6c-0.3,1.5-0.6,3.3-1,5.6c-0.2,2.4-0.2,5.2-0.2,9c0.2-1.2,0.4-1.9,0.5-2.7c0.1-1.1,0.4-2.7,0.6-4.6
			c0.3-1.9,0.9-4.1,1.4-6.2s1.1-4.2,1.4-5.9c0.5-1.6,1.1-2.9,1.3-3.4c0.9-1.7,1.7-4.1,2.7-6.7c0.3-0.7,0.6-1.6,1-2.5
			c0.5-1.5,1.1-3,1.7-4.5c0.6-1.6,1.3-3.3,2-4.9c0.5-1,1.1-1.9,1.6-2.8c0.4-0.9,0.9-1.7,1.3-2.6c1.4-2.6,2.5-5,3.7-6.6
			c0.2-0.3,2.2-3.8,3.1-5.2c0,0,0.5-0.9,1.5-2.2c0.9-1.4,2.2-3,3.5-4.7c1.4-1.6,2.7-3.3,3.6-4.6c0.5-0.6,1-1.2,1.2-1.5
			c0.3-0.3,0.5-0.5,0.5-0.5c0.7-0.7,3.1-3,5.3-5.1c1.2-1.1,2.4-2.2,3.2-3.1c1-0.9,1.8-1.5,2.1-1.8c1.6-1.5,3.3-2.9,5-4.3
			c0.9-0.6,1.8-1.3,2.8-1.9c1-0.5,2-1.1,3-1.6c-1,0.6-1.9,1.3-2.9,1.9c-0.9,0.7-1.8,1.5-2.6,2.2c-1.8,1.7-3.7,3.4-5.1,5.2
			c0,0-0.1,0.1-0.4,0.3s-0.5,0.5-1.1,0.9c-0.9,0.9-1.9,1.9-3.4,3.3c-1.4,1.4-3,3-4.7,4.7c-1.7,1.8-3.3,4-5,6
			c-1.6,1.8-3.1,3.8-4.4,5.8c-0.2,0.2-0.3,0.5-0.4,0.7c-0.1,0.1-0.1,0.1-0.2,0.2c-0.7,1.1-1.4,2-2,3.1c0.7-0.9,1.5-1.7,2.2-2.6
			c1.2-1.5,2.4-3,3.7-4.3l3.8-4.2c1.3-1.4,2.5-2.9,3.8-4.2c2.8-2.6,5.4-5.3,8.4-7.7c3-2.2,6.1-4.5,9.3-6.3c4.1-2,4.3-3.2,7.9-3.8
			c0.6-0.3,3.4-0.4,2,0.4c-1.3,0.7-4.2,2.2-6.8,3.8c-2.8,1.5-5,3.4-5.2,4.2c-0.5,1.8-0.9,1.4-3.1,2.5c-1.1,0.5-2.2,1.3-3.3,2.1
			c-1.1,1-2,1.9-3,2.8c-5.7,5.2,2,0,4.1-1.9c2.5-1.9,4.9-3.7,7.4-5.6l1.8-1.4l1.9-1.2c1.3-0.9,2.6-1.7,4-2.6
			c3.2-2.1,3.5-2.8,7.1-4.1c1.6-0.6,3.3-1.4,5-2.2c0.9-0.4,1.7-0.9,2.5-1.3c0.9-0.3,1.7-0.6,2.5-1c2-0.7,5.3-4,7.6-3.7
			c2,0.2,3.3-1.1,4.7-1.6c-0.6,0.2,10.3-0.7,9.3-1.1c-0.3-0.3-3.5-0.5-4.5-0.6c-2.2-0.2-5,1.1-6.8,2c-2.1,0.9-5.4,1.8-6,1.3
			c-0.5-0.3,1.7-2.4,11.8-4.8c3.1-0.7,1.8,0.5,2.8,0.9c1.8,0.6,12.7-0.9,11.5-1.5c0,0-0.3,0.1-0.9,0.2c-0.5,0.1-1.2,0.2-1.8,0.3
			c-1.3,0.2-2.4,0.2-1.9-0.2c0.5-0.5,3.7-1.1,4.9-1.3c3.1-0.7,2.1-2.2,6.6-2.1c2.9,0.2,6-0.3,9,0c1.5,0.1,0.6,0.4-0.6,0.7
			c0.4,0,1,0,1.4,0.1c2.2,0.1,4.6,0.2,6.5,0.3c-0.1-0.3-0.5-0.6-1-1s-5,0-4.6-0.4c1.3-1.3,6.2-0.2,8.9-0.2c3.3,0.1,5.4,0.4,8.7,1.3
			c6.8,1.9-9.9-0.2-9.8,0.3c0.1,0.1,0.9,0.2,2,0.3c0.1,0,0.2,0,0.3,0.1c1.6,0.2,4.7,0.5,8.9,1.1c2.8,0.2,5.9,1,9.2,1.7
			c1.7,0.3,3.3,0.7,5.1,1.2c1.5,0.3,3,0.9,4.5,1.3c1.1,0.3,2.1,0.6,3.1,1c1.7,0.5,3.2,1,4.2,1.3c1.1,0.3,1.6,0.5,1.6,0.5
			c0.1-0.2-3.6-1.5-7.6-3c-2-0.6-4-1.5-5.8-1.9c-1.7-0.4-3-0.7-3.5-1c-0.6-0.2-9.1-1.8-8-1.9c2.6-0.6,6,0.3,9.5,1.2
			c0.9,0.1,1.9,0.3,3.2,0.6c0.2,0.1,0.4,0.1,0.5,0.2c2.4,0.6,4.6,1.4,6.8,1.9c1.4,0.4,2.8,0.9,4.3,1.4c1.5,0.4,2.8,1.2,4.3,1.8
			c1.2,0.5,3,1.8,4.4,2.5c0.4,0.1,0.7,0.2,1.2,0.3c0.1,0,0.2,0,0.2,0c0.4-0.1,1.1,0,2,0.4c1,0.6,6,4.5,8.7,6.3
			c-1-0.7-1.6-1.3-1.5-1.5s0.9,0,1.8,0.5c1.1,0.4,2.4,1.2,3.6,2.1c1,0.6,1.9,1.3,2.8,2c0.1-0.1,0.2-0.2,0.6,0
			c0.5,0.3,1.2,0.7,1.8,1.2c0.5,0.7,1,1.4,1.4,2c0.7,0.9,1.8,1.7,2.8,2.8c-0.2,0-0.9-0.3-1.7-0.9c0.3,0.7,0.6,1.4,0.9,2
			c0,0,0,0-0.1,0c0.1,0.2,0.2,0.3,0.3,0.5c0.3-0.4,0.6-0.9,1.5-0.4c0.1,0.1,0.2,0.2,0.4,0.3c-0.4-0.4-0.9-1-1.2-1.4
			c0.1-0.1,0.1-0.2,0.2-0.3c1.2-0.2,4.3,2.6,4.8,3.5c0.9,1.5-0.9,0.7-2.4-0.4c0.5,0.6,1.2,1.4,1.8,2c0.2,0.2,0.3,0.4,0.5,0.6
			c5.7,1.9,6.3,4.2,7.1,7.1c0,0.1,0,0.1,0.1,0.2c0.3,0.4,0.5,0.7,0.7,1.1c0.6,0.4,1.3,1,2,1.7c0.6,0.4,1.4,1.1,2,2.4
			c1.1,1.2,1.9,2.1,1.9,2.4c1.5,1.7,3.1,3.6,3.7,5.3c-2.8-1.5-2.2-0.5-1.3,0.6c0.9,1.3,1.9,2.8,0.5,2c-1.1-0.5-2.8-2.1-2.4,0.2
			c0,0,2.5,5.1,2.6,5.2c1.3,1.6,2,3.4,2.1,1.3c0-2,1.2-1,2.4,0.6c0.1,0.1,0.1,0.1,0.2,0.2c-0.6-1.1-1.3-2.1-1.8-3
			c-1.1-2-1.3-2-1.7-4c-0.2-1,0.7-0.5,1.9,0.6c0.5,0.6,1.3,1.3,1.8,2.2c0.5,0.9,1,1.9,1.2,2.9c0.3,1.1,0.5,1.6,0.9,2
			c0,0,0.1,0,0.1,0.1c1.3,1.4,3.1,5.1,3.6,7.2c0.9,2.7,0.4,3.3-0.4,3.8c-0.4,0.2,0.5,3.3,1.1,3.3c0.1,0,0.1-0.1,0.2-0.3
			c-0.3-0.7-0.3-1.6,0-1.7c0.2-0.1,0.4-0.1,0.6,0.1c0.2-0.1,0.4,0.1,0.7,0.9c1.1,2.1,1.8,5.7,2.8,8.1c0.7,2,1.5,9.9,2.6,10.5
			c0.6,0.4,0.4-4.1,1.3-0.3c0.2,1.2,0.5,2.2,0.6,3.3c0.1,1.1,0.3,2.1,0.4,3.3c0.1,0.5,0,1.2-0.2,1.7c0.5,1.6,0.7,3.7-0.4,4.2
			c0-1-0.1-1.9-0.2-2.8c-0.4,0.7-0.9,1.3-0.6,1.7c0.9,1.7,1.3,0.5,2,3.4c0.4,1.8,1,1.7,1.4,3.3c0.3,1.4,0.2,5.8,0.2,7.5
			c0.1,2.1-0.5,1.7-0.9,2.8c0,0.2,0,0.3,0,0.6c-0.2,1.4-0.2,2.6,0.1,3.5c0.3,0.9,0.3,1.6,0.2,2.4c0.1,0.4,0.1,0.9,0,1.3
			c-0.2,1-0.3,1.8-0.5,2.7c0,0.1,0,0.2,0,0.4c0,2.1-0.5,3.3-1,3c-0.4,0.9-0.5,0.4-0.6-0.3c0-0.1,0-0.2,0-0.3
			c-0.2,0.3-0.3,0.6-0.4,1.2c-0.2,2.8-1.1,5.1-2.1,7.5c0.4,0.3,0.6,0.4,0.7,0.2c0.2-0.5,0.5,0,0.7,1.3c0.7-2,1.5-3.5,1.4-1.4
			c-0.1,2-0.6,3.8-1.2,5c-0.1,1.4-0.2,3.1-0.5,4.9c-0.2,1.4-0.4,2.8-0.7,4.2c-0.2,0.7-0.3,1.4-0.5,2.1c-0.2,0.7-0.5,1.4-0.9,2
			c0,0,0,0,0,0.1c-0.2,0.6-0.4,1.3-0.6,1.8c-0.5,1-1,2.5-1.4,3.6c-0.3,1.2-0.6,2.1-0.6,2.1C287.3,199,288.1,200.8,286.6,202.3z
			 M291.7,184.4c-0.1,0.2-0.1,0.4-0.2,0.6c0.1-0.1,0.1-0.2,0.2-0.3C291.7,184.6,291.7,184.5,291.7,184.4z M292.3,175.9
			c-0.1,0.3-0.2,0.5-0.2,0.7s-0.1,0.4-0.1,0.6c0.1,1,0.7-1.1,1.1-3.1C292.7,174.7,292.5,175.2,292.3,175.9z M291.4,168.5
			c0.2-1.5,0.6-3.3,1.1-4.4c0.1-0.3,0.3-1.4,0.5-2.9c0,0.1,0,0.1-0.1,0.2c-0.6,1.5-1.3,3.3-1.9,4.1
			C290.5,166.3,290.8,167.4,291.4,168.5z M43.5,141c-0.1,0.4-0.1,1-0.2,1.4C43.5,145.4,43.8,143,43.5,141z M49.1,144.7
			c0.2,1,0.5,1.1,1-0.3c-0.3-0.2-0.5-0.5-0.9-0.9C49.2,143.9,49.1,144.3,49.1,144.7z M51.2,195.1c-0.3-1.2-0.6-2.1-0.9-3.1
			c0,0.1,0,0.1,0,0.2c-0.2,1-1.1-0.5-2-2.9c0.1,0.4,0.2,0.9,0.3,1.3C49,192.4,49.4,193.1,51.2,195.1z M52.3,170
			c-0.2-1.6-0.4-3.2-0.6-4.5c0-0.2-0.1-1.1-0.2-2.2c-0.1-1.2-0.3-2.7-0.2-4.3c0-3.2,0-6.7,0-8.3c-0.1-0.3,0-2.9,0.2-6.1
			c-0.1,0.1-0.2,0.1-0.4,0.1c-0.2,2.6-0.9,5.7-1.1,5.7c-0.3-0.1-0.6,0.3-0.9,0.7c0,2.6,0.2,6.2,0.9,7.3c0.1,0.1,0.1,0.2,0.1,0.3
			c0.2-0.2,0.3,0.2,0.4,1.1c0.9,2.6,0.9,5.3,1.4,9.2c0.1,0.3,0.2,0.7,0.3,1.1C52.1,169.9,52.2,170,52.3,170z M73.8,72
			c0.2,0.2,0.4,0.4,0.2,1.2c1-1.3,2.2-2.9,2.6-3.6C76.9,68.9,76.1,69.1,73.8,72z M60.4,92.8C60.4,92.9,60.4,92.9,60.4,92.8
			c0.6-1.4,1.8-3.5,3.7-6.1c3-4.3,4-6.2,4.7-7.4c0.6-1.2,0.6-1.7,1.6-3l3.2-4.2c-0.3,0.2-1.1,1.1-1.9,1.9c-1.7,2.2-3,4.1-3.4,4.6
			c-1.5,1.8-1.6,4.2-2.8,5.7C64.3,86.2,60.3,91.1,60.4,92.8z M70,79.2c-1,1.3-1.8,2.6-2.6,3.7c0.3-0.3,0.6-0.7,0.9-1.1
			C69,81,69.6,80.1,70,79.2z M71,181.5c-0.1-0.5-0.4-1.2-0.7-1.5c-0.2-0.2-0.3-0.2-0.5-0.3C69,179.6,72.2,187.1,71,181.5z
			 M69.5,137.1c-0.2-0.2-0.4-0.4-0.7-0.6c-0.1,0.6-0.3,1.3-0.4,1.9c0.5-0.6,0.5,0.1,0.7,1.2v0.1c0-0.2,0-0.3,0.1-0.5
			C69.3,139,69.4,138.2,69.5,137.1z M69.3,162L69.3,162c0,0.2,0,0.3,0,0.4C69.4,162.3,69.3,162.1,69.3,162z M66.2,155.2
			c-0.3-0.7-0.4-0.6-0.4-0.1c0,1.6-0.1,3.2,0,4.8s0.2,3.2,0.3,4.8c0.4,1.5,0.7,1.3,0.7,0.3c0.4-4.5-0.9-5.3-0.5-8.7
			C66.3,156.1,66.3,155.7,66.2,155.2z M66.3,143.5c0.3,0.9,0.4,0,0.5-1.4C66.3,142,66.2,142.6,66.3,143.5z M67,139.5l-0.1,2.4
			C67.4,140.8,67.4,140.6,67,139.5z M68,135.7C68,135.6,67.9,135.6,68,135.7c-0.5,1-0.9,1.7-1.2,2.5c0,0.5,0,1.1,0.2,1.2
			C67.3,138,67.7,136.9,68,135.7z M67.6,152.6c0.2,0.4,0.3,0.2,0.3,0c0.2-4.9,0.5-3.3,0.9-8.4c0.1-1,0.1-1.9,0.2-2.9
			c-0.3,0.4-0.9-0.1-0.5-2.8c0,0.2-0.1,0.3-0.1,0.4c-0.2,1.8-0.5,3.8-0.4,6c0,0-0.1,1.3-0.3,2.9C67.3,149.4,67.5,151.3,67.6,152.6z
			 M68.7,164.1c0,1.2,0.1,1.7,0.3,2.2C69.2,165.4,69.1,164.8,68.7,164.1z M63.1,145.6c-0.1-0.4-0.3-0.5-0.4-0.9
			C62.4,148.3,63.6,147.1,63.1,145.6z M60.7,147c-0.2,1.6-0.1,3.7,0,5.4c0,0.4,0.1,0.9,0.2,1.2c0.2-1.7,0-4.7,0.3-6.5
			C61.4,146.4,60.8,145.7,60.7,147z M58.4,169.9c0.2,0.9,0.9,2,1.4,3.3c0.2-0.3,0.6-0.1,0.1-1.4c-0.7-2.7-0.6-3.6-0.5-4.3
			c-0.1-2.9-0.6-6.3-0.2-7.7c0.1-0.3,0.1-0.7,0-1.3c-0.2-1.3-0.3-2.7-0.3-4.1c0.2-1.3,0.4-6,0.2-6.8c-0.6-2,0.2-0.9,0.4-3.5
			c0-0.2,0-0.3,0-0.5c-0.3,0.1-0.5,0.1-0.7,0.1c0,1-0.9,4.4-1.2,5c-0.7,1-0.5-6.2-0.4-6c-0.1-0.2-0.2-0.2-0.2-0.2
			c-0.1,0.9-0.2,1.6-0.3,2.2c-0.2,1-0.2,1.8-0.1,2.8c0.2,3.1,0.4,5.4,0.1,7.6c-0.5,1.6-1.4-4.5-0.7-7.6c0.2-3.3-0.4-3.3-0.5-1.8
			c0,0.6-0.2,1.9-0.2,3.5s0.1,3.4,0.1,5.3c0.1,1.8,0.1,3.7,0.2,5.2c0.1,1.5,0.4,2.7,0.5,3.2c0.3,1,0.2,2,0.1,3
			c0.2,0.7,0.3,1.3,0.5,1.2c0-0.1,0.1-0.3,0.1-0.5c-0.1-1.2-1-4.8-0.6-4.6C56.6,162.4,58.1,168.6,58.4,169.9z M71.2,204.1
			c-1.5-2.4-2.4-5.4-0.6-3.3c-0.5-2.1-0.3-3.1-1.4-4.6c-1.7-2.1-2.5-3.4-2.9-4.9s-1-3.2-2.6-6.1c-1-1.8-0.2-2.2-1-4.6
			c-0.5-1.9-1.5-5.9-1.7-5.2c-0.1,0.2-0.2,0.3-0.3,0.3c0.1,0.4,0.2,0.9,0.1,1.3c-0.2,1.5-0.6,0.7-1-0.3c-0.3-1.2-0.6-2.7-0.6-2.7
			c-0.6-1.6-0.7,0.3-0.7,1.6c0.1,0.7,0.1,1.5,0.2,2c0.2,0.7,0.4,1.4,0.6,2c0.1,0.2,0.2,0.4,0.3,0.6c0.3,0.6,0.6,1.4,0.9,2.2
			c0.9,2.1,1.8,4.3,2.7,6.4l1.4,3.3c0.4,1.1,1.1,2.1,1.5,3.2c0.7,1.4,1.8,3.7,3.1,6C69.8,202.2,70.6,203.2,71.2,204.1z M71.7,168.2
			c-0.1-1.6-0.2-3.1-0.3-4.5c-0.1-3.1-0.1-5.9,0.1-8.7c0.1-1.7,0.2-3.4,0.3-5.2c0-0.1,0-0.2,0-0.3c0.1-1.3,0.2-2.6,0.3-4
			c0.2-1.8,0.4-3.7,0.6-5.9c-0.6-0.4-1.3-1-1.9-1.4c-0.1,0.5-0.1,1-0.2,1.5c-0.1,2.1-0.3,4.6-0.5,7.1c0,0.6-0.1,1.3-0.1,1.9
			s0,1.3,0.1,1.9c0,1.3,0.1,2.6,0.1,3.8c0,1.3,0.1,2.6,0.1,3.8c0,1.3,0.3,2.5,0.4,3.7C71.2,164.2,71.4,166.3,71.7,168.2z
			 M75.4,207.5c0.2,0.9,1,1.8,1.7,2.6c-0.7-1.2-1.6-2.5-2.4-4.1c-0.5-1.1-1.9-2-2.6-2.5c-0.5-0.4-0.3,0.1-0.1,0.7
			c-0.1,0.2-0.2,0.3-0.3,0.3c0.5,0.5,1,1.1,1.4,1.3C73.4,206.2,74.9,206.2,75.4,207.5z M80.2,240.2c-1.3-1.2-2.1-2.5-3.1-3.8
			c-0.4-0.4-0.9-1-1.4-1.5c-0.9-0.6-1-0.5-0.6,0c1,1.7,1.3,2.5,2.6,4.1C78.4,239.3,79.2,239.8,80.2,240.2z M92.7,72.1
			c-0.2,0.1-0.3,0.1-0.5,0.2c-0.9,0.4-3.2,2.8-4.8,4.3c-0.2,0.2-0.5,0.5-0.7,0.7c-0.5,0.6-1.5,1.9-1.9,3c0.1-0.2,0.2-0.3,0.4-0.5
			c1.4-1.5,3.4-3.4,5.3-5.4C91.1,73.5,91.9,72.8,92.7,72.1z M98.9,257.3c-0.5-0.2-0.7-0.1-0.4,0.3C99,258.3,101,259.2,98.9,257.3z
			 M100.9,70.6l-1.8,1.6c-0.1,0.1-0.3,0.3-0.4,0.4c-1.1,1.1-1.6,1.8-2.1,2.6c-0.3,0.3-0.5,0.7-0.9,1.1c2.4-2.1,5-4.6,6.7-6.4
			C103.8,68.5,99.8,71.6,100.9,70.6z M104.1,62.4c-0.1,0-0.3,0.1-0.4,0.2c-2.2,2.2-3.3,2.5-3.2,1.8c-1.2,0.9-2.4,1.8-3.5,2.9
			c-0.4,0.7-1,1.6-1.7,2.6c0.4-0.3,0.9-0.6,1.2-1c1.8-1.5,3.1-2.7,3.5-3C101.6,64.8,103,63.8,104.1,62.4z M111.3,47.4
			c-0.9,0.1-3.6,1.9-3.1,2c0.4-0.1,0.9-0.3,1.4-0.7C110.1,48.4,110.7,48,111.3,47.4z M116,45c1.7-0.9,3.1-1.7,2.6-1.6
			c-2.4,1.2-5.4,2.2-7.2,4c0.4-0.2,1.2-0.5,1.9-1.1C114.2,45.8,115.1,45.4,116,45z M127.9,44.1c-1.2,0.3-2.9,0.9-4.5,1.7
			c-3.2,1.6-6.5,3.3-6,3.2c0.9-0.1,3.5-1.2,6.1-2.4c0.6-0.3,1.3-0.6,1.9-0.9c0.6-0.2,1.3-0.4,1.8-0.6c1.1-0.4,1.8-0.9,2.1-1.1
			C129.8,43.7,129.1,43.8,127.9,44.1z M140.7,93.7c-0.6-0.1-1.2,0-1.6,0c-0.5,0.4-1.3,1.1-0.5,1.9C141,98.7,142.6,94,140.7,93.7z
			 M154.4,42.1c0.2,0,1.5-0.2,1.9-0.3C156.9,41.7,154.7,41.6,154.4,42.1z M151.2,38.2c-0.9,0-2.9,0.2-4.8,0.6
			c-1.9,0.5-3.8,1.1-4.5,1.4c2.1,0.2,14.1-2.1,17.3-2.5C160.1,37.5,152.2,38.2,151.2,38.2z M172.2,83.3c0.4,0.5,0.5,1.1,2,0.2
			c-0.5-0.6-0.7-0.5-1.4-0.6C172.6,83.1,172.4,83.2,172.2,83.3z M167.8,25.4c-0.1,0.1,0.3,0.1,0.9,0
			C168.3,25.5,168.1,25.4,167.8,25.4z M175.3,274.6c-1.1-0.2-2.9-0.1-4.4-0.2c-0.6,0-1.3,0-2,0c-0.9,0.1-1.2,0.2-0.6,0.5
			c1.2,0.6,1.9,0.9,2.9,1.1c0.6-0.2,1.3-0.6,3-1.1C174.5,274.8,175,274.7,175.3,274.6z M177.6,25.8c-0.6,0-1.3,0-1.8,0
			C176.7,25.9,177.2,25.9,177.6,25.8z M205.4,84.4c0.2,1.1,1,1.3,1.8,1.6c1.1-0.3,2.1-0.3,3.1-0.2C211.3,83.8,205.2,83,205.4,84.4z
			 M203.8,61.1c0.4,0.1,1.1,0.3,1.8,0.5c-0.5-0.2-1-0.5-1.4-0.7C204,61,203.9,61,203.8,61.1z M187,276.7c-1.2,0.1-2.4,0.3-3.5,0.4
			c0.2,0,0.3,0,0.5,0C185,277.1,186.1,277,187,276.7z M189.5,275.3c-0.2-0.2-0.3-0.5,0-0.9c0.3-0.3-1.2-0.6-2.7-0.9
			c-1.2,0.2-2.4,0.5-3.5,0.9c1,0.5,1.2,1.3,3.8,1.1C187.9,275.5,188.6,275.4,189.5,275.3z M205.5,268.8c-0.7,0.1-1.8,0.3-3.8,1.1
			c0,0-2.5,0.7-6,1.7c-1.7,0.4-3.7,0.9-5.8,1.3c0.3,0.1,1,0.1,1.8-0.1c0.9-0.2,2.7-0.7,4.4-1.2s3.3-1.1,3.8-1.1
			C202.1,270.9,205.3,269.5,205.5,268.8z M213.3,93.3c-1.2-0.4-0.3,2.1-1.7,1.5c-1.1-0.5-2-1.6-2.9-2.8c-0.6,0.1-1.3,0.1-1.8,0
			c-1.9-0.3-3.4-0.7-4.8-0.2c0.2,0.3,0.2,0.7,0.2,1.2c0.1,0,0.2,0,0.3,0.1c0.2,0.1,1.9,0.2,3.7,0.4c1.7,0.2,3.4,0.6,3.4,0.6
			c1.5,0.2,1.5,1.1,1.4,2c1,1.9,1.4,3.7,1.6,5.1c0.3,1.4,0.3,2.1,0.3,2.1c1.2,0.2,4.3,0.1,3.6-0.9c-0.7-1.2-1.2-1-1.4-2.6
			c-0.2-1.3,1.6-1.5,1.9-2.5C218,94.7,215.6,94,213.3,93.3z M220.5,94.6L220.5,94.6L220.5,94.6L220.5,94.6z M230.1,137.5
			c-0.1-0.7-0.4-1.6-0.6-2.4C229,134,228.1,137.4,230.1,137.5z M230.2,128.1c-0.5-1.8-2-5.4-3.7-3.4c-0.2,1.4,1,3.5,1.4,4.3
			C228.5,129.9,230.4,129,230.2,128.1z M238.7,87.8c-0.5-0.5-1.1-1.1-1.7-1.5C237.7,87,238.2,87.5,238.7,87.8z M250.1,100.1
			c-1-1.6-2-3-2.9-3.6c-0.1-0.1-0.2-0.2-0.3-0.4c0.3,0.7,0.6,1.5,1,2.5c0.4,1.2,2.1,4.1,2.1,3.3C250,101,249.9,100.2,250.1,100.1z
			 M251.7,53.9c-0.3-0.2-0.5-0.4-0.9-0.6C251.3,53.7,251.5,53.9,251.7,53.9z M253,105.8c-0.3-0.6-0.5-1.4-0.9-2
			C252.2,104.3,252.5,105,253,105.8z M262.2,64.2c-0.4-0.4-0.9-0.9-1.3-1.3c0.2,0.3,0.5,0.6,1.1,1.1L262.2,64.2z M266.3,143.7
			c0.1,0.3,0.7,0,1.2-1.8c-0.1-0.4-0.2-0.9-0.2-1.4l0,0C266.4,141.8,266.2,143.3,266.3,143.7z M263,120.5c-0.1-0.2-0.1-0.4-0.2-0.6
			c0,0,0,0,0,0.1C262.8,120.2,262.9,120.4,263,120.5z M285.7,197.4c0.3-1.1,0.5-2.1,0.7-3c0.2-1-0.1-1.1-1.4,1.9c0-0.3,0-0.6,0.1-1
			c-0.4,0.7-0.7,1.5-1.3,2.5c-0.9,2.4-2,4.9-3.4,6.3c-0.5,0.5-0.9,0.7-1.2,0.6c-0.3-0.1,0.7-2.8,2-5.8c0.3-0.7,0.5-1.5,0.9-2.2
			c-1.8,2.7-3.6,5.3-2.5,2.1c0.9-2.1,1.5-3.1,1.8-4.7c-0.3,0.5-0.5,1.1-0.9,1.6l-0.1-0.1c-0.5,1.4-1.2,2.7-1.7,4
			c-1,2.2-1.9,4.4-2.9,6.6c-0.5,1-1.1,1.9-1.6,2.8c-0.3,3-0.5,6.8-3.4,8c-0.1,0-1.2,1.3-1.1,0.7c0.2-1,0.3-1.9-1-0.9
			c-0.4,0.4-0.9,0.9-1.3,1.4c-0.1,0.1-0.2,0.2-0.3,0.3c-0.7,1.3,0.4,1.9-0.6,3.5c0.3-0.3,0.5-0.6,0.7-0.9c1.3-1.3,0.7-0.1-2.6,5.2
			c2.8-1.5,6.4-6.9,8-7.9c1-0.5,6.2-9.8,7.3-11.3c1.6-2.5,3.1-5.6,4.7-7.5C284.8,199.3,285.2,198.3,285.7,197.4z M286.3,199.6
			c0.4-1,0.5-1.9,1.2-2.9c0.6-1.1,1-1.9,1-2.8c-0.2,0.2-0.5,0.4-0.9,1.2c-0.4,1-1.1,2.9-1.3,3.6c-0.1,0.4-0.2,0.9-0.3,1.4
			C286.1,199.9,286.2,199.8,286.3,199.6z"/>
		<g id="Layer_2_2_">
			<g id="Layer_1-2">
				<path class="st1" d="M247.7,268.3c-7.4-0.4-13.2,0.3-14.2-1.5l-11.4-1.2c0,0,0.1-13.1-4.7-18.8c0,0,14.8,3.9,19.1-2.4
					c0,0,5-3.8,9-4c0,0-0.8-3-4-8.5c0,0-3.5-11.8-5.5-9.5l0.7-5.5l-0.7-0.2c0,0,2.5-34.9-7-42.6c0,0-3.7-4.7-3.4-12.6
					s1.4-45.1-9-57.1c0,0-3.9-4.9-6.1-7s-5.1-7.5-5.1-7.5c5.4,1,12.6-3.8,12.6-3.8c2.9-0.7,2.1-4.3,2.1-4.3c0-6.3-3.3-15.8-3.3-15.8
					c-4.4-17.3-9-20.8-12.8-23.7c-3.8-3-5.2-1.6-6.9-2.1s-7.6-2-9-3.9c-0.8-1.2-1.1-2.8-0.7-4.2c2-1.8,3.2-4.4,3.1-7.1
					c2.6,1.7,1.7-6.3,1.7-6.3c-0.1-7.3-2.3-10.6-2.3-10.6C178.8-6,169.5,7.9,169.5,7.9c-2.4,3.2-2.1,11.7-2.1,11.7
					c-1.1-1.1-1.8,1.5-0.3,5.3s3.1,2.8,3.1,2.8l0.3,1.1c-4.4,5.2-1.9,7.8-1.9,7.8c0.4-4.3,3.3-5.2,3.3-5.2l0.4,10.2
					c-1.9,0.3-4.3,2.8-4.3,2.8c-1.1,0.2-6.9,3.1-6.9,3.1c-3.8,1.4-6,9.3-5.3,13.4s0.4,9.3,0,12.3c-0.4,3.1-1.9,8.7-1.9,8.7
					c-1.4-0.3-2.5,3.8-3.8,5.8s-6.4,8-6.4,8c-1.3-1.3-3.2-0.2-3.2-0.2c-1.9-0.9-2.2,0.8-2.2,0.8c-0.8-0.2-1.7,0-2.3,0.5
					c-2.6-0.5-1.7,6.3-1.7,6.3c-3.1,2.2-3.7,6-4.1,9.5c-0.4,3.5-1.1,3.7-1.1,3.7c-2.9-0.7-3,1.8-3,1.8l4.2,4.3l-0.9,48.1
					c-11.7,3.9-21.8,14.6-27.7,29c-3.6-0.6-11.9,0.3-16.4,17.8l-7.1,0.2l-0.2,3l7.2,0.1c0,0-1.1,15.3,11.9,20.3
					c3,18.2,12.7,32.8,25.7,38.4c-3.2,0.1-12,0.5-12.4,3l-1.7,0.1c0,0-2.3-4.5-5.4-3.4c-3.1,1.2-3.5,2.6-3.5,5.4s3.6,6.4,8.9,1.6
					l68.5,5.2c0,0,8.8-0.1,3.7-6.3l-15.4-1.3l5.4-1.5c0,0,11.3,1.1,16.6-3.7l24.9-5.8l30.1,2.4l0.2,1.1l-1.8-0.2l-0.2,3.4
					c0,0,6.2,0.5,7.1-0.3l-0.3-2.6l-1.1-0.1v-1c0,0,7.1,1,6.7-4.1C253.3,271.2,255.1,268.7,247.7,268.3z M136.9,165.9l-2.8,2.7
					l0.4-41.4l5.8,5.1l0.7,30.9C141,163.2,138.3,162.1,136.9,165.9z M135.2,112.7c0.7-7.9,4.4-5.8,6.6-5.4c2.2,0.4,5.2-2.7,5.2-2.7
					c-0.9,1.1-0.1,9.8-0.1,9.8l-1.7-1.9L135.2,112.7z M152.4,282.2l-6.6,0.1c1.2-0.2,6.6-3.9,6.6-3.9V282.2z M153.1,167.2v-2.1
					c-1-2.3-3.6-3.1-3.6-3.1l-0.4-26l5.1,31.1h-1.1V167.2z M163.6,277.8l-2.8,0.5l-0.1-7.1l3.9-4.7L163.6,277.8z M171.4,118.4
					c-0.7,1.7-7.1,16.5-8.1,21.8c-1.5,6.9-1.9,13.9-1.1,20.9c0.6,5.5,0.9,11,0.8,16.6v1.7l-3.7-3.8l-4.4-39.9l5.5-0.5l2.3-4.6
					l-4.9-5c0,0,1.7-2.1-1.9-1.7l-3.4-3.2c0,0-4.2-14.6,1.5-18.6s14.1-7.6,14.1-7.6l3.1,6.1c0.4,2.3,1.1,4.8,1.4,7.3
					C172.8,110.4,172.2,116.7,171.4,118.4L171.4,118.4z M223.6,231.3l-4.9,5.6c1-1.2,2.8-9.5,2.8-9.5l2.7,0.1
					c-1.1,0.4-2,1.2-2.4,2.2C221,231.6,223.6,231.3,223.6,231.3L223.6,231.3z M203.7,74.5l1.5,1.9l-2,0.7L203.7,74.5z M205.4,165.3
					l-5.5-0.5l-0.1-3.6h4C203.8,161.2,204.5,164.3,205.4,165.3z M177,240.8l1.4-4.5l7.9,8.2L177,240.8z M189.9,227.8
					c-7.4-1.4-8.2,3.6-8.2,3.6l-3.4-2.5l0.2-4.5l11.7,0.7L189.9,227.8z M180.7,221.4c0,0,1.8-5-2.9-5.3c-0.4-5-1.3-10-2.8-14.8
					c3-8.1,3.8-16.8,2.3-25.3c0,0,4.2-8.9,5.7-15.2s8.9-13.3,10.1-19c1.3-5.7,3.6-8.4,3.6-8.4s1.5,9.4,3.3,12.9s0.9,4,0.9,4
					s-11.8,3.1-0.7,7.5c0,0-4.4-0.4-4.2,4.6c0.2,5.1,0.2,9.4,0.2,9.4l3.4,0.1c0,0-0.1,1,1.2,1.7l-2.6,17.3c-0.8,0.1-1.6-0.4-1.9-1.2
					c0,0-4.2-1.9-6,1.4c-1.8,3.3,1.5,5.4,5.8,5.8l-1.3,10.4c0,0-5.7,8.5-4.4,14.7L180.7,221.4z M214.4,265.3l-21.6-0.5
					c0.7-0.7,1.3-6.4,1.3-6.4c1.1-1.2,1.9-2.5,2.3-4c1.1-2.9,3.2,0,3.2,0c0.8,0.8,2,1.2,3.2,1.2c2.2-3,3.6-1.4,3.6-1.4
					c0.4-1.9,5.1-3.2,5.1-3.2C215,257.1,214.5,265.3,214.4,265.3L214.4,265.3z M202.8,200.4l0.4-1.4l1.1-0.3l0.5-5.2l-1.2-0.7
					l3.1-21.2l2.9,0.5l-0.1,2.3c0,0-1.7-1.2-1.8,1.1c0,0-0.9,3.2-0.4,4.3c0,0,2.5,4.4,7-0.7c0,0,1.9,4.5,3.9,10.6
					c0,0,1.4,5.2,3.4,10.9s5.1,15.7,4.9,17.3c0,0-1.9-0.7-0.3,1.1l-0.4,3l-4.5-0.2C221.2,221.8,220.7,197.9,202.8,200.4L202.8,200.4
					z"/>
			</g>
		</g>
	</g>
</g>
</svg>
